# Blender 4.2.0
# www.blender.org
o Cylinder
v 0.040217 0.250000 -0.040217
v 0.000000 0.250000 -0.056876
v 0.000000 0.000000 -0.056876
v 0.040217 0.000000 -0.040217
v 0.056876 0.000000 0.000000
v 0.040217 0.000000 0.040217
v 0.000000 0.000000 0.056876
v -0.040217 0.000000 0.040217
v 0.000000 0.500000 0.000000
v -0.056876 0.000000 0.000000
v -0.040217 0.000000 -0.040217
v 0.056876 0.250000 0.000000
v 0.040217 0.250000 0.040217
v 0.000000 0.250000 0.056876
v -0.040217 0.250000 0.040217
v -0.056876 0.250000 0.000000
v -0.040217 0.250000 -0.040217
v -0.075340 0.250000 -0.075340
v -0.106547 0.250000 0.000000
v 0.000000 0.250000 -0.106547
v -0.075340 0.250000 0.075340
v 0.000000 0.250000 0.106547
v 0.075340 0.250000 0.075340
v 0.106547 0.250000 0.000000
v 0.075340 0.250000 -0.075340
v 0.000000 0.250000 -0.056876
v 0.040217 0.250000 -0.040217
v 0.056876 0.250000 0.000000
v 0.000000 0.000000 -0.056876
v 0.040217 0.000000 -0.040217
v 0.040217 0.250000 0.040217
v 0.056876 0.000000 0.000000
v 0.000000 0.250000 0.056876
v 0.040217 0.000000 0.040217
v -0.040217 0.250000 0.040217
v 0.000000 0.000000 0.056876
v -0.056876 0.250000 0.000000
v -0.040217 0.000000 0.040217
v -0.040217 0.250000 -0.040217
v -0.056876 0.000000 0.000000
v -0.040217 0.000000 -0.040217
v 0.000000 0.250000 -0.106547
v -0.075340 0.250000 -0.075340
v -0.106547 0.250000 0.000000
v -0.075340 0.250000 0.075340
v 0.000000 0.250000 0.106547
v 0.075340 0.250000 0.075340
v 0.106547 0.250000 0.000000
v 0.075340 0.250000 -0.075340
vn 0.9199 0.3921 -0.0000
vn 0.6505 0.3921 -0.6505
vn -0.0000 1.0000 -0.0000
vn 0.7071 -0.0000 -0.7071
vn 1.0000 -0.0000 -0.0000
vn -0.0000 -1.0000 -0.0000
vn -0.0000 0.3921 -0.9199
vn 0.7071 -0.0000 0.7071
vn -0.0000 0.3921 0.9199
vn 0.6505 0.3921 0.6505
vn -0.0000 -0.0000 1.0000
vn -0.6505 0.3921 0.6505
vn -0.7071 -0.0000 0.7071
vn -1.0000 -0.0000 -0.0000
vn -0.9199 0.3921 -0.0000
vn -0.7071 -0.0000 -0.7071
vn -0.0000 -0.0000 -1.0000
vn -0.6505 0.3921 -0.6505
vt 0.750000 0.750000
vt 0.875000 0.750000
vt 0.750000 1.000000
vt 0.875000 0.500000
vt 0.750000 0.500000
vt 0.500000 0.750000
vt 0.375000 0.750000
vt 0.875000 0.750000
vt 1.000000 0.750000
vt 0.875000 1.000000
vt 0.625000 0.750000
vt 0.625000 0.500000
vt 0.500000 1.000000
vt 0.500000 0.500000
vt 0.375000 1.000000
vt 0.375000 0.500000
vt 0.250000 0.750000
vt 0.250000 0.500000
vt 0.250000 1.000000
vt 0.125000 0.750000
vt 0.125000 0.500000
vt 0.000000 0.750000
vt 0.000000 0.500000
vt 0.125000 1.000000
vt 0.625000 1.000000
vt 1.000000 0.500000
vt 0.750000 0.490000
vt 0.919706 0.419706
vt 0.990000 0.250000
vt 0.919706 0.080294
vt 0.750000 0.010000
vt 0.580294 0.080294
vt 0.510000 0.250000
vt 0.580294 0.419706
vt 0.000000 1.000000
s 1
f 24/1/1 49/2/2 9/3/3
f 30/4/4 1/2/4 28/1/5 32/5/5
f 14/6/6 46/6/6 45/7/6 35/7/6
f 49/8/2 20/9/7 9/10/3
f 32/5/5 28/1/5 31/11/8 34/12/8
f 22/6/9 47/11/10 9/13/3
f 34/12/8 31/11/8 33/6/11 36/14/11
f 27/2/6 25/2/6 48/1/6 12/1/6
f 21/7/12 22/6/9 9/15/3
f 36/14/11 33/6/11 15/7/13 38/16/13
f 12/1/6 48/1/6 23/11/6 13/11/6
f 35/7/6 45/7/6 19/17/6 37/17/6
f 38/16/13 15/7/13 16/17/14 40/18/14
f 13/11/6 23/11/6 46/6/6 14/6/6
f 44/17/15 21/7/12 9/19/3
f 40/18/14 16/17/14 39/20/16 41/21/16
f 26/9/6 42/9/6 25/8/6 27/2/6
f 41/21/16 39/20/16 2/22/17 29/23/17
f 18/20/18 44/17/15 9/24/3
f 47/11/10 24/1/1 9/25/3
f 29/26/17 2/9/17 1/2/4 30/4/4
f 37/17/6 19/17/6 43/20/6 17/20/6
f 3/27/6 4/28/6 5/29/6 6/30/6 7/31/6 8/32/6 10/33/6 11/34/6
f 17/20/6 43/20/6 42/22/6 26/22/6
f 20/22/7 18/20/18 9/35/3
